<svg xmlns="http://www.w3.org/2000/svg" class="css-r5ic95" viewBox="0 0 10 13"><path fill="#000" d="M9.9,8c-0.4,1.1-1.2,1.9-2.3,2.4V8l1.3-1.2L7.6,5.7V4c1.2-0.1,2-1,2-2c0-1.4-1.3-1.9-2.1-1.9c-0.2,0-0.3,0-0.6,0.1v0.1c0.1,0,0.2,0,0.3,0c0.5,0,0.9,0.2,0.9,0.7c0,0.4-0.3,0.7-0.8,0.7C6,1.7,4.5,0.6,2.8,0.6c-1.5,0-2.5,1.1-2.5,2.2C0.3,4,1,4.3,1.6,4.6l0-0.1C1.4,4.4,1.3,4.1,1.3,3.8c0-0.5,0.5-0.9,1-0.9C3.7,2.9,6,4,7.4,4h0.1v1.7L6.2,6.8L7.5,8v2.4c-0.5,0.2-1.1,0.3-1.7,0.3c-2.2,0-3.6-1.3-3.6-3.5c0-0.5,0.1-1,0.2-1.5l1.1-0.5V10l2.2-1v-5L2.5,5.5c0.3-1,1-1.7,1.8-2l0,0C2.2,3.9,0.1,5.6,0.1,8c0,2.9,2.4,4.8,5.2,4.8C8.2,12.9,9.9,10.9,9.9,8L9.9,8z"/></svg>