<svg enable-background="new 0 0 16.605 16.724" viewBox="0 0 16.605 16.724" xmlns="http://www.w3.org/2000/svg" xmlns:xlink="http://www.w3.org/1999/xlink"><clipPath id="a"><path d="m12.57 10.023c-.05-.083-.183-.133-.383-.233-.2-.099-1.182-.583-1.365-.649-.184-.066-.317-.1-.45.1s-.516.649-.633.783c-.117.133-.233.15-.433.05s-.844-.311-1.607-.991c-.594-.53-.995-1.184-1.111-1.384-.117-.2-.012-.308.088-.407.09-.09.2-.233.3-.35s.133-.2.199-.333c.067-.133.034-.25-.016-.35-.05-.099-.45-1.082-.616-1.482-.167-.4-.333-.333-.45-.333s-.25-.017-.383-.017-.35.05-.533.25-.699.683-.699 1.665c0 .983.715 1.932.816 2.065.1.133 1.382 2.215 3.413 3.015 2.032.8 2.032.533 2.398.499.366-.033 1.182-.483 1.349-.949.166-.466.166-.866.116-.949zm-4.116-8.726c-3.78 0-6.854 3.073-6.854 6.85 0 1.499.485 2.887 1.305 4.016l-.856 2.543 2.634-.843c1.082.715 2.378 1.133 3.77 1.133 3.779 0 6.854-3.073 6.854-6.85 0-3.776-3.074-6.849-6.853-6.849zm8.151 6.85c0 4.5-3.649 8.147-8.152 8.147-1.429 0-2.772-.367-3.941-1.014l-4.512 1.444 1.471-4.371c-.742-1.228-1.17-2.668-1.17-4.207.001-4.499 3.651-8.146 8.153-8.146s8.151 3.647 8.151 8.147z"/></clipPath><path clip-path="url(#a)" d="m-5-5h26.605v26.724h-26.605z"/></svg>