<svg viewBox="23.7 -85.1 300 39.5" xmlns="http://www.w3.org/2000/svg" role="img" aria-label="The New York Times Logo"><path d="m46.2-81c0-3.2-3-4.2-5.6-4v.5c1.5 0 2.7.5 2.7 1.6 0 .7-.5 1.6-2 1.6-1.2 0-3.5-.7-5.4-1.3-2.1-.7-4-1.4-5.6-1.4-3.2 0-5.6 2.4-5.6 5.3 0 2.4 1.8 3.2 2.5 3.5l.2-.4c-.5-.3-.9-.7-.9-1.6 0-.7.6-1.8 2.3-1.8 1.5 0 3.4.7 6 1.4 2.2.6 4.7 1.2 6 1.4v5l-2.5 2.1v.2l2.5 2.2v6.9c-1.3.7-2.8.9-4 .9-2.4 0-4.6-.6-6.4-2.6l6.7-3.2v-11.1l-8.2 3.6c.9-2.2 2.6-3.6 4.3-4.7l-.1-.4c-4.9 1.3-9.3 5.8-9.3 11.3 0 6.6 5.4 11.5 11.5 11.5 6.6 0 10.8-5.2 10.7-10.6h-.4c-1 2.1-2.4 4.1-4.2 5.1v-6.8l2.6-2.1v-.2l-2.6-2.1v-5c2.3-.1 4.8-1.8 4.8-4.8zm-14.2 18-2 1c-1.1-1.5-1.9-3.5-1.9-6.2 0-1.1.1-2.5.5-3.5l3.4-1.5zm17.3 3.6-2.2 1.6.3.3 1-.7 3.6 3.3 4.9-3.3-.2-.3-1.3.8-1.6-1.6v-11.2l1.3-1 2.8 2.3v9.9c0 6.2-1.4 7.2-4.2 8.2v.4c4.6.2 8.8-1.4 8.8-9.3v-10.6l1.5-1.2-.2-.2-1.3 1-4-3.5-4.6 3.5v-13.4h-.3l-5.8 3.9v.3c.6.4 1.6.6 1.6 2.5v18.3zm29.8-1.7-4 3.1-4.1-3.3v-1.9l7.7-5.2v-.2l-3.8-5.9-8.5 4.5v10.7l-1.7 1.3.3.3 1.5-1.2 5.5 4 7.4-5.8zm-8.1-2.7v-8l.3-.2 3.6 5.6zm39.3-18.7c0-.5-.1-.9-.3-1.5h-.4c-.5 1.4-1.1 2.1-2.7 2.1-1.4 0-2.5-.9-3.1-1.5l-4.7 5.4.4.4 1.3-1.5c1 .8 1.7 1.5 4 1.6v13.5l-9.5-16.5c-.7-1.2-2-3.1-4.3-3.1-2.6 0-4.9 2.2-4.6 5.9h.5c.1-1 .6-2.1 1.7-2.1.9 0 1.7.9 2.1 1.6v5.3c-3 0-4.9 1.4-4.9 3.8 0 1.2.6 3.3 2.7 3.7v-.4c-.3-.3-.5-.6-.5-1.1 0-.9.7-1.5 1.9-1.5.2 0 .7 0 .9.1v6.9c-3.5 0-6.1 1.9-6.1 5.2 0 3.1 2.7 4.6 5.5 4.4v-.4c-1.7-.2-2.7-1-2.7-2.1 0-1.4 1-2.1 2.3-2.1s2.5.8 3.3 1.7l4.7-5.2-.4-.4-1.2 1.4c-1.8-1.6-2.8-2.2-4.9-2.5v-16.3l13.2 22.9h.9v-22.9c2.5-.1 4.9-2 4.9-4.8zm11.8 21.4-4 3.1-4.2-3.3v-1.9l7.7-5.2v-.2l-3.8-5.9-8.4 4.5v10.7l-1.7 1.3.3.3 1.5-1.2 5.5 4 7.4-5.8zm-8.2-2.7v-8l.3-.2 3.6 5.6zm34.9-8.9-1.2.9-3.1-2.6-3.6 3.3 1.5 1.4v12.3l-4-2.5v-10l1.3-.9-3.8-3.5-3.5 3.3 1.5 1.4v11.7l-.5.3-3.5-2.4v-9.8c0-2.3-1.1-2.9-2.5-3.8-1.2-.7-1.7-1.4-1.7-2.5 0-.9.9-1.5 1.4-1.7v-.4c-1.2 0-4.7 1.3-4.8 4.5 0 1.6.7 2.3 1.6 3.1.8.8 1.6 1.5 1.6 2.9v9.4l-1.7 1.4.3.4 1.6-1.2 4.3 3.4 4.1-2.8 4.5 2.8 8.7-5v-10.9l2.1-1.6zm30.2-9-1.6 1.5-3.6-3.2-5.3 4v-3.7h-.5l.1 26.4c-.5-.1-1.9-.4-3.1-.6l-.1-22.1c0-1.6-1.2-3.9-4.1-3.9-3 0-4.9 2.3-4.9 4.6h.5c.2-1 .7-1.8 1.6-1.8 1 0 1.9.6 1.9 2.8v6.4c-3 .1-4.7 1.8-4.7 3.8 0 1.3.6 3.3 2.7 3.3l.1-.4c-.7-.3-.9-.7-.9-1.1 0-.9.9-1.3 2.1-1.3h.6v10.1c-2.4.8-3.5 2.6-3.5 4.5 0 2.7 2.2 4.8 5.4 4.8 2.3 0 4.2-.4 6.3-.9 1.7-.3 3.7-.7 4.7-.7 1.2 0 1.8.6 1.8 1.5 0 1.1-.5 1.6-1.2 1.7l.1.4c2.7-.5 4.2-2.1 4.2-4.5 0-2.5-2.4-4-5-4-1.4 0-4 .4-6.1.9-2.3.5-4.5.7-5.2.7-1.1 0-2.5-.5-2.5-2.1 0-1.4 1.1-2.4 3.9-2.4 1.5 0 3.2.2 5.1.7 2 .4 3.7 1 5.4 1 2.4 0 4.5-.9 4.5-4.3v-20.1l1.9-1.6zm-6.7 10.1c-.4.5-1.1.9-1.9.9-.9 0-1.6-.5-2-.9v-7.3l1.7-1.1 2.3 2.1v6.3zm0 4.8c-.4-.4-1.1-.8-1.9-.8s-1.6.5-2 .8v-4.3c.3.3 1.1.9 2 .9s1.6-.5 1.9-.9zm0 7.6c0 1.3-.9 2.6-2.6 2.6-.3 0-1 0-1.3-.1v-9.5c.4-.4 1.1-.9 2-.9.8 0 1.5.5 1.9.9zm22.3-11.5-5.3-3.8-7.9 4.5v10.6l-1.6 1.3.2.3 1.3-1 5.2 3.8 8.1-4.9zm-8.6 10.2v-11.6l4.1 3v11.6zm24.2-13.6h-.3c-.4.4-1 .7-1.4.7-.6 0-1.4-.4-1.8-.9h-.3l-2.8 3-2.8-3-4.8 3.3.2.4 1.3-.9 1.7 1.8v10.3l-2.2 1.6.3.3 1-.7 3.9 3.3 5.1-3.4-.2-.3-1.4.9-1.9-1.7v-11.5c.8.9 1.8 1.7 2.9 1.7 2.1 0 3.3-2.4 3.5-4.9zm19.6 15.7-5.6 3.6-7.5-11.4 5.3-8.3h.3c.6.6 1.7 1.3 2.7 1.3 1.1 0 1.9-.6 2.4-1.3h.3c-.2 3.3-2.4 5.2-4.1 5.2s-2.5-.8-3.4-1.3l-.5.7 8.2 12.1 1.6-1zm-17.9-1-2.2 1.6.3.3 1-.7 3.6 3.3 4.9-3.3-.3-.3-1.2.8-1.6-1.6v-25.2h-.3l-5.9 3.9v.3c.6.3 1.7.5 1.7 2.5zm45-21.6c0-3.2-3-4.2-5.6-4v.5c1.5 0 2.7.5 2.7 1.6 0 .7-.5 1.6-2 1.6-1.2 0-3.5-.7-5.4-1.3-2.1-.7-4-1.4-5.6-1.4-3.2 0-5.6 2.4-5.6 5.3 0 2.4 1.8 3.2 2.5 3.5l.2-.4c-.5-.3-.9-.7-.9-1.6 0-.7.6-1.8 2.3-1.8 1.5 0 3.4.7 6 1.4 2.2.6 4.7 1.2 6 1.4v5l-2.5 2.1v.2l2.5 2.2v6.9c-1.3.7-2.8.9-4 .9-2.4 0-4.6-.6-6.4-2.6l6.7-3.2v-11.1l-8.2 3.7c.9-2.2 2.6-3.6 4.3-4.7l-.1-.4c-4.9 1.3-9.3 5.8-9.3 11.3 0 6.6 5.4 11.5 11.5 11.5 6.6 0 10.8-5.2 10.7-10.6h-.4c-1 2.1-2.4 4.1-4.2 5.1v-6.8l2.6-2.1v-.2l-2.6-2.1v-5c2.2-.2 4.8-1.9 4.8-4.9zm-14.2 18-2 1c-1.1-1.5-1.9-3.5-1.9-6.2 0-1.1.1-2.5.5-3.5l3.4-1.5zm19.7-19.5h-.2l-3.3 2.8v.2l2.8 3.1h.3l3.3-2.7v-.2zm5 24.1-1.2.8-1.6-1.6v-11.3l1.6-1.2-.3-.4-1.2.9-2.8-3.4-4.7 3.3.3.4 1.2-.8 1.4 1.8v10.6l-2.1 1.6.2.3 1.1-.8 3.6 3.3 4.9-3.3zm27.2-.2-1.2.8-1.7-1.6v-11.1l1.7-1.2-.3-.4-1.4 1.1-3.7-3.5-4.8 3.4-3.7-3.4-4.7 3.4-2.9-3.4-4.7 3.3.2.4 1.2-.8 1.6 1.7v10.6l-1.3 1.3 3.7 3.1 3.6-3.3-1.5-1.4v-11l1.4-.9 2.5 2.3v9.9l-1.2 1.3 3.8 3.1 3.5-3.3-1.5-1.4v-11.1l1.2-.8 2.7 2.3v9.7l-1.1 1.1 3.8 3.5 5-3.4zm14.2-2.5-4 3.1-4.2-3.3v-1.9l7.7-5.2v-.2l-3.8-5.9-8.4 4.5v11.1l5.6 4.1 7.4-5.8zm-8.2-2.7v-8l.3-.2 3.6 5.6zm23.1-1.5-3.1-2.4c2.1-1.8 2.9-4.3 2.9-5.9 0-.2 0-.7-.1-1h-.4c-.3.9-.9 1.6-2.2 1.6-1.2 0-2.1-.7-2.9-1.6l-7.3 4v5.9l2.7 2.1c-2.8 2.4-3.3 4.2-3.3 5.4 0 1.6.7 2.8 2.1 3.3l.2-.4c-.3-.3-.7-.5-.7-1.2 0-.5.7-1.3 1.9-1.3 1.6 0 2.6 1.1 3.1 1.7l7.1-4.2zm-1.8-4.9c-1.1 1.9-3.6 3.8-5 4.9l-1.8-1.4v-5.8c.7 1.6 2.4 2.9 4.3 2.9 1.1 0 1.7-.2 2.5-.6zm-2.9 13c-.8-1.8-2.7-3.1-4.7-3.1-.5 0-1.8 0-3.1.8.7-1.2 2.9-3.6 5.7-5.2l2 1.6v5.9z" fill="#fff"/></svg>
